HIERARCHY
ROOT hip
{
  OFFSET 0 90.174 2.4664
  CHANNELS 6 Xposition Yposition Zposition Zrotation Xrotation Yrotation
  JOINT abdomen
  {
    OFFSET 0 -1.186 -1.5018
    CHANNELS 6 Xposition Yposition Zposition Zrotation Xrotation Yrotation
    JOINT abdomen2
    {
      OFFSET 0 9.964 0.2134
      CHANNELS 6 Xposition Yposition Zposition Zrotation Xrotation Yrotation
      JOINT chest
      {
        OFFSET 0 13.134 -3.2573
        CHANNELS 6 Xposition Yposition Zposition Zrotation Xrotation Yrotation
        JOINT neck
        {
          OFFSET 0 20.686 -1.6905
          CHANNELS 6 Xposition Yposition Zposition Zrotation Xrotation Yrotation
          JOINT head
          {
            OFFSET 0 7.238 -0.1237
            CHANNELS 6 Xposition Yposition Zposition Zrotation Xrotation Yrotation
            End Site
            {
              OFFSET 0 0 0
            }
          }
        }
        JOINT lCollar
        {
          OFFSET 1.7069 20.075 5.0056
          CHANNELS 6 Xposition Yposition Zposition Zrotation Xrotation Yrotation
          JOINT lShldr
          {
            OFFSET 13.6458 -0.047 -4.849
            CHANNELS 6 Xposition Yposition Zposition Zrotation Xrotation Yrotation
            JOINT lForeArm
            {
              OFFSET 28.3255 -0.9759 2.2888
              CHANNELS 6 Xposition Yposition Zposition Zrotation Xrotation Yrotation
              JOINT lHand
              {
                OFFSET 22.1583 -0.53 10.8316
                CHANNELS 6 Xposition Yposition Zposition Zrotation Xrotation Yrotation
                JOINT lThumb1
                {
                  OFFSET 0.786 0.112 2.5817
                  CHANNELS 6 Xposition Yposition Zposition Zrotation Xrotation Yrotation
                  JOINT lThumb2
                  {
                    OFFSET 0.3601 -0.878 4.2331
                    CHANNELS 6 Xposition Yposition Zposition Zrotation Xrotation Yrotation
                    JOINT lThumb2_End
                    {
                      OFFSET 1.8127 -1.216 2.2227
                      CHANNELS 6 Xposition Yposition Zposition Zrotation Xrotation Yrotation
                      End Site
                      {
                        OFFSET 0.0181 -0.0122 0.0222
                      }
                    }
                  }
                }
                JOINT lCarpal1
                {
                  OFFSET 0.9571 1.114 1.7695
                  CHANNELS 6 Xposition Yposition Zposition Zrotation Xrotation Yrotation
                  JOINT lIndex1
                  {
                    OFFSET 4.1246 0.487 4.1451
                    CHANNELS 6 Xposition Yposition Zposition Zrotation Xrotation Yrotation
                    JOINT lIndex2
                    {
                      OFFSET 3.4052 -1.454 2.7682
                      CHANNELS 6 Xposition Yposition Zposition Zrotation Xrotation Yrotation
                      JOINT lIndex2_End
                      {
                        OFFSET 1.4531 -1.795 1.2713
                        CHANNELS 6 Xposition Yposition Zposition Zrotation Xrotation Yrotation
                        End Site
                        {
                          OFFSET 0.0145 -0.0179 0.0127
                        }
                      }
                    }
                  }
                  JOINT lMid1
                  {
                    OFFSET 5.6954 0.21 2.1184
                    CHANNELS 6 Xposition Yposition Zposition Zrotation Xrotation Yrotation
                    JOINT lMid2
                    {
                      OFFSET 3.9766 -1.54 2.3863
                      CHANNELS 6 Xposition Yposition Zposition Zrotation Xrotation Yrotation
                      JOINT lMid2_End
                      {
                        OFFSET 1.4042 -1.926 1.125
                        CHANNELS 6 Xposition Yposition Zposition Zrotation Xrotation Yrotation
                        End Site
                        {
                          OFFSET 0.014 -0.0193 0.0113
                        }
                      }
                    }
                  }
                }
                JOINT lCarpal2
                {
                  OFFSET 2.0956 0.66 -0.3894
                  CHANNELS 6 Xposition Yposition Zposition Zrotation Xrotation Yrotation
                  JOINT lRing1
                  {
                    OFFSET 5.0395 -0.09 2.4971
                    CHANNELS 6 Xposition Yposition Zposition Zrotation Xrotation Yrotation
                    JOINT lRing2
                    {
                      OFFSET 3.7921 -1.552 1.4806
                      CHANNELS 6 Xposition Yposition Zposition Zrotation Xrotation Yrotation
                      JOINT lRing2_End
                      {
                        OFFSET 1.4655 -1.808 0.9609
                        CHANNELS 6 Xposition Yposition Zposition Zrotation Xrotation Yrotation
                        End Site
                        {
                          OFFSET 0.0147 -0.0181 0.0096
                        }
                      }
                    }
                  }
                  JOINT lPinky1
                  {
                    OFFSET 4.9141 -1.269 0.3591
                    CHANNELS 6 Xposition Yposition Zposition Zrotation Xrotation Yrotation
                    JOINT lPinky2
                    {
                      OFFSET 3.1477 -1.685 0.8462
                      CHANNELS 6 Xposition Yposition Zposition Zrotation Xrotation Yrotation
                      JOINT lPinky2_End
                      {
                        OFFSET 0.8055 -1.585 0.7955
                        CHANNELS 6 Xposition Yposition Zposition Zrotation Xrotation Yrotation
                        End Site
                        {
                          OFFSET 0.0081 -0.0158 0.008
                        }
                      }
                    }
                  }
                }
              }
            }
          }
        }
        JOINT rCollar
        {
          OFFSET -1.7069 20.075 5.0056
          CHANNELS 6 Xposition Yposition Zposition Zrotation Xrotation Yrotation
          JOINT rShldr
          {
            OFFSET -13.6458 -0.047 -4.849
            CHANNELS 6 Xposition Yposition Zposition Zrotation Xrotation Yrotation
            JOINT rForeArm
            {
              OFFSET -28.3255 -0.9759 2.2888
              CHANNELS 6 Xposition Yposition Zposition Zrotation Xrotation Yrotation
              JOINT rHand
              {
                OFFSET -22.1583 -0.53 10.8316
                CHANNELS 6 Xposition Yposition Zposition Zrotation Xrotation Yrotation
                JOINT rThumb1
                {
                  OFFSET -0.786 0.112 2.5817
                  CHANNELS 6 Xposition Yposition Zposition Zrotation Xrotation Yrotation
                  JOINT rThumb2
                  {
                    OFFSET -0.3601 -0.878 4.2331
                    CHANNELS 6 Xposition Yposition Zposition Zrotation Xrotation Yrotation
                    JOINT rThumb2_End
                    {
                      OFFSET -1.8127 -1.216 2.2227
                      CHANNELS 6 Xposition Yposition Zposition Zrotation Xrotation Yrotation
                      End Site
                      {
                        OFFSET -0.0181 -0.0122 0.0222
                      }
                    }
                  }
                }
                JOINT rCarpal1
                {
                  OFFSET -0.9571 1.114 1.7695
                  CHANNELS 6 Xposition Yposition Zposition Zrotation Xrotation Yrotation
                  JOINT rIndex1
                  {
                    OFFSET -4.1246 0.487 4.1451
                    CHANNELS 6 Xposition Yposition Zposition Zrotation Xrotation Yrotation
                    JOINT rIndex2
                    {
                      OFFSET -3.4052 -1.454 2.7682
                      CHANNELS 6 Xposition Yposition Zposition Zrotation Xrotation Yrotation
                      JOINT rIndex2_End
                      {
                        OFFSET -1.4531 -1.795 1.2713
                        CHANNELS 6 Xposition Yposition Zposition Zrotation Xrotation Yrotation
                        End Site
                        {
                          OFFSET -0.0145 -0.018 0.0127
                        }
                      }
                    }
                  }
                  JOINT rMid1
                  {
                    OFFSET -5.6954 0.21 2.1184
                    CHANNELS 6 Xposition Yposition Zposition Zrotation Xrotation Yrotation
                    JOINT rMid2
                    {
                      OFFSET -3.9766 -1.54 2.3863
                      CHANNELS 6 Xposition Yposition Zposition Zrotation Xrotation Yrotation
                      JOINT rMid2_End
                      {
                        OFFSET -1.4042 -1.926 1.125
                        CHANNELS 6 Xposition Yposition Zposition Zrotation Xrotation Yrotation
                        End Site
                        {
                          OFFSET -0.014 -0.0193 0.0113
                        }
                      }
                    }
                  }
                }
                JOINT rCarpal2
                {
                  OFFSET -2.0956 0.66 -0.3894
                  CHANNELS 6 Xposition Yposition Zposition Zrotation Xrotation Yrotation
                  JOINT rRing1
                  {
                    OFFSET -5.0395 -0.09 2.4971
                    CHANNELS 6 Xposition Yposition Zposition Zrotation Xrotation Yrotation
                    JOINT rRing2
                    {
                      OFFSET -3.7921 -1.552 1.4806
                      CHANNELS 6 Xposition Yposition Zposition Zrotation Xrotation Yrotation
                      JOINT rRing2_End
                      {
                        OFFSET -1.4655 -1.808 0.9609
                        CHANNELS 6 Xposition Yposition Zposition Zrotation Xrotation Yrotation
                        End Site
                        {
                          OFFSET -0.0147 -0.0181 0.0096
                        }
                      }
                    }
                  }
                  JOINT rPinky1
                  {
                    OFFSET -4.9141 -1.269 0.3592
                    CHANNELS 6 Xposition Yposition Zposition Zrotation Xrotation Yrotation
                    JOINT rPinky2
                    {
                      OFFSET -3.1477 -1.685 0.8462
                      CHANNELS 6 Xposition Yposition Zposition Zrotation Xrotation Yrotation
                      JOINT rPinky2_End
                      {
                        OFFSET -0.8055 -1.585 0.7955
                        CHANNELS 6 Xposition Yposition Zposition Zrotation Xrotation Yrotation
                        End Site
                        {
                          OFFSET -0.0081 -0.0158 0.008
                        }
                      }
                    }
                  }
                }
              }
            }
          }
        }
      }
    }
  }
  JOINT lThigh
  {
    OFFSET 8.367 -8.2066 0.5982
    CHANNELS 6 Xposition Yposition Zposition Zrotation Xrotation Yrotation
    JOINT lShin
    {
      OFFSET 2.1923 -43.463 -0.4932
      CHANNELS 6 Xposition Yposition Zposition Zrotation Xrotation Yrotation
      JOINT lFoot
      {
        OFFSET 0.7333 -45.8593 -2.6451
        CHANNELS 6 Xposition Yposition Zposition Zrotation Xrotation Yrotation
        End Site
        {
          OFFSET 2.6618 -4.2699 12.3931
        }
      }
    }
  }
  JOINT rThigh
  {
    OFFSET -8.367 -8.2066 0.5982
    CHANNELS 6 Xposition Yposition Zposition Zrotation Xrotation Yrotation
    JOINT rShin
    {
      OFFSET -2.1923 -43.463 -0.4931
      CHANNELS 6 Xposition Yposition Zposition Zrotation Xrotation Yrotation
      JOINT rFoot
      {
        OFFSET -0.7333 -45.8593 -2.6451
        CHANNELS 6 Xposition Yposition Zposition Zrotation Xrotation Yrotation
        End Site
        {
          OFFSET -2.6618 -4.2699 12.3931
        }
      }
    }
  }
}
MOTION
Frames:	4
Frame Time:	0.0333333
0 90.174 2.4664 0 0 -0 0 -1.186 -1.5018 0 0 -0 0 9.964 0.2134 0 0 -0 0 13.134 -3.2573 0 0 -0 0 20.686 -1.6905 0 0 -0 0 7.238 -0.1237 0 0 -0 1.7069 20.075 5.0056 0 0 -0 13.6458 -0.047 -4.849 1.66051 0.0835086 5.75766 28.3255 -0.9759 2.2888 -0.0175111 0.895433 15.7816 22.1583 -0.53 10.8316 7.95139e-016 -1.98785e-016 -0 0.786 0.112 2.5817 5.46658e-016 -3.97569e-016 -0 0.3601 -0.878 4.2331 5.96354e-016 0 -0 1.8127 -1.216 2.2227 3.97569e-016 1.98785e-016 9.54166e-015 0.9571 1.114 1.7695 1.49089e-016 -3.97569e-016 -0 4.1246 0.487 4.1451 6.4605e-016 0 3.18055e-015 3.4052 -1.454 2.7682 5.96354e-016 0 3.18055e-015 1.4531 -1.795 1.2713 8.94531e-016 -1.98785e-016 6.36111e-015 5.6954 0.21 2.1184 6.4605e-016 0 3.18055e-015 3.9766 -1.54 2.3863 5.96354e-016 0 3.18055e-015 1.4042 -1.926 1.125 8.94531e-016 -1.98785e-016 6.36111e-015 2.0956 0.66 -0.3894 1.49089e-016 -3.97569e-016 -0 5.0395 -0.09 2.4971 6.4605e-016 0 3.18055e-015 3.7921 -1.552 1.4806 5.96354e-016 0 3.18055e-015 1.4655 -1.808 0.9609 8.94531e-016 -1.98785e-016 6.36111e-015 4.9141 -1.269 0.3591 6.4605e-016 0 3.18055e-015 3.1477 -1.685 0.8462 5.96354e-016 0 3.18055e-015 0.8055 -1.585 0.7955 8.94531e-016 -1.98785e-016 6.36111e-015 -1.7069 20.075 5.0056 0 0 -0 -13.6458 -0.047 -4.849 -1.4496 0.0636048 -5.0245 -28.3255 -0.9759 2.2888 -1.74811 1.20616 -16.8394 -22.1583 -0.53 10.8316 -1.19271e-015 1.98785e-016 -3.18055e-015 -0.786 0.112 2.5817 -3.97569e-016 1.98785e-016 -3.18055e-015 -0.3601 -0.878 4.2331 -2.98177e-016 1.98785e-016 -3.18055e-015 -1.8127 -1.216 2.2227 -2.98177e-016 3.97569e-016 -0 -0.9571 1.114 1.7695 4.96962e-016 0 -6.36111e-015 -4.1246 0.487 4.1451 -9.93923e-017 3.97569e-016 -0 -3.4052 -1.454 2.7682 -8.94531e-016 5.96354e-016 -0 -1.4531 -1.795 1.2713 -3.97569e-016 3.97569e-016 -0 -5.6954 0.21 2.1184 -9.93923e-017 3.97569e-016 -0 -3.9766 -1.54 2.3863 -8.94531e-016 5.96354e-016 -0 -1.4042 -1.926 1.125 -3.97569e-016 3.97569e-016 -0 -2.0956 0.66 -0.3894 4.96962e-016 0 -6.36111e-015 -5.0395 -0.09 2.4971 -9.93923e-017 3.97569e-016 -0 -3.7921 -1.552 1.4806 -8.94531e-016 5.96354e-016 -0 -1.4655 -1.808 0.9609 -3.97569e-016 3.97569e-016 -0 -4.9141 -1.269 0.3592 -9.93923e-017 3.97569e-016 -0 -3.1477 -1.685 0.8462 -8.94531e-016 5.96354e-016 -0 -0.8055 -1.585 0.7955 -3.97569e-016 3.97569e-016 -0 8.367 -8.2066 0.5982 -4.66115 -1.03232 0.120763 2.1923 -43.463 -0.4932 0.00990601 1.55097 0.177175 0.7333 -45.8593 -2.6451 4.65196 -0.54114 -0.255042 -8.367 -8.2066 0.5982 4.66115 -1.03222 -0.120763 -2.1923 -43.463 -0.4931 -0.00990459 1.5509 -0.177176 -0.7333 -45.8593 -2.6451 -4.65196 -0.541171 0.255041 
0.00586933 32.6467 -6.63846 -0 -59.8095 -0 0 -1.186 -1.5018 -0.128338 1.10701 -0.253428 0 9.964 0.2134 -0.251848 2.21457 -0.504516 0 13.134 -3.2573 -0.251848 2.21456 -0.504516 1.11022e-016 20.686 -1.6905 1.54173e-005 4.0807 3.3387e-005 1.11022e-016 7.238 -0.1237 2.21234e-008 14.1872 2.85973e-007 1.7069 20.075 5.0056 -1.53668 -4.64233 -5.39186 13.6458 -0.047 -4.849 -4.61562 -14.5855 -28.4384 28.3255 -0.9759 2.2888 -26.3869 -10.3479 -20.7957 22.1583 -0.53 10.8316 -31.1635 2.89816 -15.1434 0.786 0.112 2.5817 2.03636e-006 -2.43099e-006 5.30798e-008 0.3601 -0.878 4.2331 1.35664e-006 1.86643e-006 -1.08742e-006 1.8127 -1.216 2.2227 -1.35664e-006 -1.86643e-006 1.08742e-006 0.9571 1.114 1.7695 -3.18055e-015 -4.77083e-015 -3.18055e-015 4.1246 0.487 4.1451 2.03636e-006 -2.43099e-006 5.30798e-008 3.4052 -1.454 2.7682 1.35664e-006 1.86643e-006 -1.08742e-006 1.4531 -1.795 1.2713 -1.35664e-006 -1.86643e-006 1.08742e-006 5.6954 0.21 2.1184 2.03636e-006 -2.43099e-006 5.30798e-008 3.9766 -1.54 2.3863 1.35664e-006 1.86643e-006 -1.08742e-006 1.4042 -1.926 1.125 -1.35664e-006 -1.86643e-006 1.08742e-006 2.0956 0.66 -0.3894 -3.18055e-015 -4.77083e-015 -3.18055e-015 5.0395 -0.09 2.4971 2.03636e-006 -2.43099e-006 5.30798e-008 3.7921 -1.552 1.4806 1.35664e-006 1.86643e-006 -1.08742e-006 1.4655 -1.808 0.9609 -1.35664e-006 -1.86643e-006 1.08742e-006 4.9141 -1.269 0.3591 2.03636e-006 -2.43099e-006 5.30798e-008 3.1477 -1.685 0.8462 1.35664e-006 1.86643e-006 -1.08742e-006 0.8055 -1.585 0.7955 -1.35664e-006 -1.86643e-006 1.08742e-006 -1.7069 20.075 5.0056 1.55273 -4.55823 5.23889 -13.6458 -0.047 -4.849 4.81279 -14.4574 29.2426 -28.3255 -0.9759 2.2888 24.5543 -11.4165 19.4679 -22.1583 -0.53 10.8316 31.2481 2.6857 15.3199 -0.786 0.112 2.5817 -3.18055e-015 -1.90833e-014 -6.36111e-015 -0.3601 -0.878 4.2331 -6.36111e-015 -1.11319e-014 -0 -1.8127 -1.216 2.2227 -6.36111e-015 -4.77083e-015 -3.18055e-015 -0.9571 1.114 1.7695 3.18055e-015 -6.36111e-015 -6.36111e-015 -4.1246 0.487 4.1451 -9.54166e-015 -1.27222e-014 9.54166e-015 -3.4052 -1.454 2.7682 -3.18055e-015 -1.11319e-014 -0 -1.4531 -1.795 1.2713 -6.36111e-015 -1.43125e-014 -0 -5.6954 0.21 2.1184 -9.54166e-015 -1.27222e-014 9.54166e-015 -3.9766 -1.54 2.3863 -3.18055e-015 -1.11319e-014 -0 -1.4042 -1.926 1.125 -6.36111e-015 -1.43125e-014 -0 -2.0956 0.66 -0.3894 3.18055e-015 -6.36111e-015 -6.36111e-015 -5.0395 -0.09 2.4971 -9.54166e-015 -1.27222e-014 9.54166e-015 -3.7921 -1.552 1.4806 -3.18055e-015 -1.11319e-014 -0 -1.4655 -1.808 0.9609 -6.36111e-015 -1.43125e-014 -0 -4.9141 -1.269 0.3592 -9.54166e-015 -1.27222e-014 9.54166e-015 -3.1477 -1.685 0.8462 -3.18055e-015 -1.11319e-014 -0 -0.8055 -1.585 0.7955 -6.36111e-015 -1.43125e-014 -0 8.367 -8.2066 0.5982 2.36041 -39.6322 8.15599 2.1923 -43.463 -0.4932 32.6773 85.2966 -31.9979 0.7333 -45.8593 -2.6451 6.63417 9.16371 1.62609 -8.367 -8.2066 0.5982 -2.38806 -32.6538 -7.40492 -2.1923 -43.463 -0.4931 -6.86485 75.9758 6.14822 -0.7333 -45.8593 -2.6451 -6.67901 8.63592 -1.35065 
0.0121737 -4.25094 -8.53803 -180 -85.3016 -180 0 -1.186 -1.5018 -0.188729 1.77852 -0.406771 6.93889e-018 9.964 0.2134 -0.365077 3.55836 -0.808259 -2.77556e-017 13.134 -3.2573 -0.365077 3.55837 -0.808259 0 20.686 -1.6905 -1.23105e-006 6.2884 -6.58025e-006 0 7.238 -0.1237 -1.74319e-007 22.1944 3.63523e-007 1.7069 20.075 5.0056 -2.80675 -7.41773 -8.62313 13.6458 -0.047 -4.849 -15.2783 -16.7205 -49.8176 28.3255 -0.9759 2.2888 -47.6194 -9.77397 -42.1611 22.1583 -0.53 10.8316 -51.1622 4.80218 -21.1959 0.786 0.112 2.5817 -6.89931e-007 -8.70395e-007 1.36343e-006 0.3601 -0.878 4.2331 5.4629e-007 9.52148e-007 -5.29901e-007 1.8127 -1.216 2.2227 -8.33528e-007 8.27312e-008 -1.43641e-007 0.9571 1.114 1.7695 2.38542e-015 3.18055e-015 -6.36111e-015 4.1246 0.487 4.1451 -6.89931e-007 -8.70395e-007 1.36343e-006 3.4052 -1.454 2.7682 5.4629e-007 9.52148e-007 -5.29901e-007 1.4531 -1.795 1.2713 -8.33528e-007 8.27312e-008 -1.43641e-007 5.6954 0.21 2.1184 -6.89931e-007 -8.70395e-007 1.36343e-006 3.9766 -1.54 2.3863 5.4629e-007 9.52148e-007 -5.29901e-007 1.4042 -1.926 1.125 -8.33528e-007 8.27312e-008 -1.43641e-007 2.0956 0.66 -0.3894 2.38542e-015 3.18055e-015 -6.36111e-015 5.0395 -0.09 2.4971 -6.89931e-007 -8.70395e-007 1.36343e-006 3.7921 -1.552 1.4806 5.4629e-007 9.52148e-007 -5.29901e-007 1.4655 -1.808 0.9609 -8.33528e-007 8.27312e-008 -1.43641e-007 4.9141 -1.269 0.3591 -6.89931e-007 -8.70395e-007 1.36343e-006 3.1477 -1.685 0.8462 5.4629e-007 9.52148e-007 -5.29901e-007 0.8055 -1.585 0.7955 -8.33528e-007 8.27312e-008 -1.43641e-007 -1.7069 20.075 5.0056 2.81283 -7.28711 8.38331 -13.6458 -0.047 -4.849 15.4173 -16.5195 50.6213 -28.3255 -0.9759 2.2888 46.1907 -11.5521 41.0683 -22.1583 -0.53 10.8316 51.3306 4.53682 21.4256 -0.786 0.112 2.5817 3.41088e-007 -1.53205e-006 -1.07133e-006 -0.3601 -0.878 4.2331 -3.41088e-007 1.53205e-006 1.07133e-006 -1.8127 -1.216 2.2227 3.41088e-007 -1.53205e-006 -1.07133e-006 -0.9571 1.114 1.7695 0 0 -3.18055e-015 -4.1246 0.487 4.1451 3.41088e-007 -1.53205e-006 -1.07133e-006 -3.4052 -1.454 2.7682 -3.41088e-007 1.53205e-006 1.07133e-006 -1.4531 -1.795 1.2713 3.41088e-007 -1.53205e-006 -1.07133e-006 -5.6954 0.21 2.1184 3.41088e-007 -1.53205e-006 -1.07133e-006 -3.9766 -1.54 2.3863 -3.41088e-007 1.53205e-006 1.07133e-006 -1.4042 -1.926 1.125 3.41088e-007 -1.53205e-006 -1.07133e-006 -2.0956 0.66 -0.3894 0 0 -3.18055e-015 -5.0395 -0.09 2.4971 3.41088e-007 -1.53205e-006 -1.07133e-006 -3.7921 -1.552 1.4806 -3.41088e-007 1.53205e-006 1.07133e-006 -1.4655 -1.808 0.9609 3.41088e-007 -1.53205e-006 -1.07133e-006 -4.9141 -1.269 0.3592 3.41088e-007 -1.53205e-006 -1.07133e-006 -3.1477 -1.685 0.8462 -3.41088e-007 1.53205e-006 1.07133e-006 -0.8055 -1.585 0.7955 3.41088e-007 -1.53205e-006 -1.07133e-006 8.367 -8.2066 0.5982 14.207 -64.802 24.5957 2.1923 -43.463 -0.4932 171.908 43.5451 -165.913 0.7333 -45.8593 -2.6451 7.33707 17.5901 4.79959 -8.367 -8.2066 0.5982 -10.6636 -52.5021 -17.1524 -2.1923 -43.463 -0.4931 -171.549 59.525 167.71 -0.7333 -45.8593 -2.6451 -7.59016 15.2015 -3.26571 
0.00899814 0.295213 -8.51819 -180 -89.5737 -180 0 -1.186 -1.5018 -0.180651 1.7686 -0.38901 0 9.964 0.2134 -0.349528 3.53837 -0.772989 0 13.134 -3.2573 -0.349528 3.53838 -0.772988 1.11022e-016 20.686 -1.6905 1.39604e-005 5.55323 -1.03832e-005 2.22045e-016 7.238 -0.1237 -5.49131e-007 20.4901 -3.56351e-007 1.7069 20.075 5.0056 -2.54672 -7.39625 -8.34278 13.6458 -0.047 -4.849 -13.8283 -16.8296 -47.2117 28.3255 -0.9759 2.2888 -44.8808 -10.3183 -39.5179 22.1583 -0.53 10.8316 -48.6507 4.58762 -20.5607 0.786 0.112 2.5817 7.15625e-015 3.18055e-015 -0 0.3601 -0.878 4.2331 7.95139e-016 0 -3.18055e-015 1.8127 -1.216 2.2227 0 0 -0 0.9571 1.114 1.7695 3.97569e-015 3.18055e-015 -0 4.1246 0.487 4.1451 5.56597e-015 3.18055e-015 4.77083e-015 3.4052 -1.454 2.7682 3.97569e-015 3.18055e-015 -0 1.4531 -1.795 1.2713 -2.38542e-015 0 -0 5.6954 0.21 2.1184 5.56597e-015 3.18055e-015 4.77083e-015 3.9766 -1.54 2.3863 3.97569e-015 3.18055e-015 -0 1.4042 -1.926 1.125 -2.38542e-015 0 -0 2.0956 0.66 -0.3894 3.97569e-015 3.18055e-015 -0 5.0395 -0.09 2.4971 5.56597e-015 3.18055e-015 4.77083e-015 3.7921 -1.552 1.4806 3.97569e-015 3.18055e-015 -0 1.4655 -1.808 0.9609 -2.38542e-015 0 -0 4.9141 -1.269 0.3591 5.56597e-015 3.18055e-015 4.77083e-015 3.1477 -1.685 0.8462 3.97569e-015 3.18055e-015 -0 0.8055 -1.585 0.7955 -2.38542e-015 0 -0 -1.7069 20.075 5.0056 2.55325 -7.26813 8.1276 -13.6458 -0.047 -4.849 13.9764 -16.6361 48.0172 -28.3255 -0.9759 2.2888 43.3884 -12.0156 38.3839 -22.1583 -0.53 10.8316 48.8082 4.32681 20.7864 -0.786 0.112 2.5817 6.36111e-015 0 -0 -0.3601 -0.878 4.2331 1.59028e-015 0 -3.18055e-015 -1.8127 -1.216 2.2227 2.38542e-015 -3.18055e-015 -0 -0.9571 1.114 1.7695 3.18055e-015 0 -0 -4.1246 0.487 4.1451 2.38542e-015 0 3.18055e-015 -3.4052 -1.454 2.7682 -7.95139e-016 -3.18055e-015 3.18055e-015 -1.4531 -1.795 1.2713 -7.95139e-016 -3.18055e-015 3.18055e-015 -5.6954 0.21 2.1184 2.38542e-015 0 3.18055e-015 -3.9766 -1.54 2.3863 -7.95139e-016 -3.18055e-015 3.18055e-015 -1.4042 -1.926 1.125 -7.95139e-016 -3.18055e-015 3.18055e-015 -2.0956 0.66 -0.3894 3.18055e-015 0 -0 -5.0395 -0.09 2.4971 2.38542e-015 0 3.18055e-015 -3.7921 -1.552 1.4806 -7.95139e-016 -3.18055e-015 3.18055e-015 -1.4655 -1.808 0.9609 -7.95139e-016 -3.18055e-015 3.18055e-015 -4.9141 -1.269 0.3592 2.38542e-015 0 3.18055e-015 -3.1477 -1.685 0.8462 -7.95139e-016 -3.18055e-015 3.18055e-015 -0.8055 -1.585 0.7955 -7.95139e-016 -3.18055e-015 3.18055e-015 8.367 -8.2066 0.5982 11.5955 -61.3709 20.6455 2.1923 -43.463 -0.4932 171.412 49.706 -166.632 0.7333 -45.8593 -2.6451 7.32293 16.1113 4.08152 -8.367 -8.2066 0.5982 -9.26431 -49.9398 -15.3146 -2.1923 -43.463 -0.4931 -170.568 64.91 167.34 -0.7333 -45.8593 -2.6451 -7.50714 14.2154 -2.91267 
